<svg xmlns="http://www.w3.org/2000/svg" width="33.34" height="33.34" viewBox="0 0 33.34 33.34">
  <g id="_317727_facebook_social_media_social_icon" data-name="317727_facebook_social media_social_icon" transform="translate(0 0)">
    <path id="Path_6487" data-name="Path 6487" d="M33.34,31.257a2.085,2.085,0,0,1-2.084,2.084H2.084A2.085,2.085,0,0,1,0,31.257V2.084A2.085,2.085,0,0,1,2.084,0H31.256A2.085,2.085,0,0,1,33.34,2.084Z" transform="translate(0 0)" fill="#0b0b0b"/>
    <path id="f" d="M22.377,33.131v-12.5h4.168l1.042-5.209H22.377V13.335q0-3.126,3.126-3.126h2.084V5H23.419c-3.829,0-6.251,3-6.251,7.293v3.126H13v5.209h4.168v12.5Z" transform="translate(0.544 0.209)" fill="#fff"/>
  </g>
</svg>
