<svg xmlns="http://www.w3.org/2000/svg" width="33.656" height="33.657" viewBox="0 0 33.656 33.657">
  <g id="_317725_linkedin_social_icon" data-name="317725_linkedin_social_icon" transform="translate(0 0)">
    <path id="Path_6485" data-name="Path 6485" d="M33.657,31.553a2.1,2.1,0,0,1-2.1,2.1H2.1a2.1,2.1,0,0,1-2.1-2.1V2.1A2.1,2.1,0,0,1,2.1,0H31.553a2.1,2.1,0,0,1,2.1,2.1Z" transform="translate(0 0)" fill="#0b0b0b"/>
    <g id="Group_12569" data-name="Group 12569" transform="translate(7.315 6.363)">
      <rect id="Rectangle_685" data-name="Rectangle 685" width="3.805" height="15.222" transform="translate(0 4.757)" fill="#fff"/>
      <path id="Path_6486" data-name="Path 6486" d="M20.887,11c-2.935,0-3.44,1.071-3.68,2.1V11H13V25.725h4.207V17.311a1.891,1.891,0,0,1,2.1-2.1,1.9,1.9,0,0,1,2.1,2.1v8.414h4.207V18.362C25.621,14.155,25.073,11,20.887,11Z" transform="translate(-6.642 -5.794)" fill="#fff"/>
      <ellipse id="Ellipse_146" data-name="Ellipse 146" cx="1.903" cy="1.903" rx="1.903" ry="1.903" transform="translate(0 0)" fill="#fff"/>
    </g>
  </g>
</svg>
