<svg xmlns="http://www.w3.org/2000/svg" xmlns:xlink="http://www.w3.org/1999/xlink" width="179.606" height="31.75" viewBox="0 0 179.606 31.75">
  <defs>
    <linearGradient id="linear-gradient" x1="0.5" x2="0.5" y2="1" gradientUnits="objectBoundingBox">
      <stop offset="0" stop-color="#d59bff"/>
      <stop offset="1" stop-color="#ea803d"/>
    </linearGradient>
  </defs>
  <g id="Group_13814" data-name="Group 13814" transform="translate(-244.882 -22.087)">
    <g id="Group_2" data-name="Group 2" transform="translate(244.882 22.087)">
      <path id="二级导航" d="M9.139-.887,4.313-11.55H1.344V3.091h2.4V-7.47L8.271,2.97h1.737L14.531-7.47V3.091h2.4V-11.55H13.965Zm14.883.4L21.377-7.41h-2.4l3.857,9.794c-.363,1.434-1.313,2.322-2.585,2.161L19.58,6.706a3.49,3.49,0,0,0,.828.081c2.383,0,3.9-1.656,5.028-4.746L29.111-7.41H26.728ZM41.147-.2A5.685,5.685,0,0,1,37.916.93a4.951,4.951,0,0,1-5.109-5.19,4.921,4.921,0,0,1,4.786-5.19A5.386,5.386,0,0,1,40.7-8.339l1.656-1.777a7.826,7.826,0,0,0-4.766-1.676,7.219,7.219,0,0,0-7.331,7.553,7.383,7.383,0,0,0,7.654,7.573,7.634,7.634,0,0,0,4.786-1.7Zm5.17-1.959a3.162,3.162,0,0,1,3.15-3.292A3.146,3.146,0,0,1,52.6-2.159a3.146,3.146,0,0,1-3.13,3.292A3.162,3.162,0,0,1,46.317-2.159Zm-2.343,0a5.448,5.448,0,0,0,5.493,5.493A5.431,5.431,0,0,0,54.94-2.159a5.431,5.431,0,0,0-5.473-5.493A5.448,5.448,0,0,0,43.974-2.159ZM68.793-5.411c1.393,0,2,1.131,2,2.807V3.091h2.444V-3.432c0-2.019-1.01-4.221-3.857-4.221a4.727,4.727,0,0,0-3.615,1.717,3.531,3.531,0,0,0-3.251-1.717A4,4,0,0,0,59.5-6.138V-7.41H57.06v10.5H59.5V-3.9a3,3,0,0,1,2.423-1.515c1.393,0,2,1.131,2,2.807V3.091H66.37V-3.9A3,3,0,0,1,68.793-5.411Zm9.512-2H75.861V6.928H78.3V2.021a4.087,4.087,0,0,0,3.07,1.313c2.565,0,4.564-2.343,4.524-5.432-.04-3.473-1.979-5.553-4.524-5.553A4.288,4.288,0,0,0,78.3-6.239Zm2.343,1.939c1.575,0,2.908,1.232,2.908,3.372a2.909,2.909,0,0,1-2.908,3.211A3.342,3.342,0,0,1,78.3.022V-4.34A3.26,3.26,0,0,1,80.647-5.471ZM93.814.506a3.036,3.036,0,0,1-2.181.909c-1.131,0-1.979-.586-1.979-1.535,0-1.131.949-1.575,2.363-1.575a4.106,4.106,0,0,1,1.8.384Zm0-3.554a5.737,5.737,0,0,0-1.959-.363c-2.706,0-4.584,1.171-4.584,3.393a3.27,3.27,0,0,0,3.494,3.352,4.523,4.523,0,0,0,3.049-1.212v.969h2.423V-2.967c0-3.049-1.535-4.685-4.766-4.685a9.435,9.435,0,0,0-3.433.707l.626,1.9a6.959,6.959,0,0,1,2.484-.545A2.354,2.354,0,0,1,93.814-3.048Zm9.976-2.363c1.393,0,2.06,1.131,2.06,2.807V3.091h2.444V-3.432c0-2.019-1.07-4.221-3.918-4.221a4.146,4.146,0,0,0-3.07,1.515V-7.41H98.863v10.5h2.444V-3.9A3.11,3.11,0,0,1,103.79-5.411ZM114.7-.483,112.05-7.41h-2.4L113.5,2.384c-.364,1.434-1.313,2.322-2.585,2.161l-.666,2.161a3.49,3.49,0,0,0,.828.081c2.383,0,3.9-1.656,5.028-4.746l3.675-9.451H117.4Z" transform="translate(59.822 20.988)" fill="#1c1c1c"/>
      <g id="cloud-domains-svgrepo-com" transform="translate(0 0)">
        <path id="Path_1" data-name="Path 1" d="M24.26,5.77,11.29,37.494,14.908,5.77Z" transform="translate(11.745 -5.77)" fill-rule="evenodd" fill="url(#linear-gradient)"/>
        <path id="Path_2" data-name="Path 2" d="M20.59,5.77,16.972,37.494H7.62Z" transform="translate(6.063 -5.77)" fill="#f8d6f4" fill-rule="evenodd"/>
        <path id="Path_3" data-name="Path 3" d="M5.97,14.65l-3.72,9.1H8.8l1.045-9.1Z" transform="translate(-2.25 7.977)" fill="#f7d6f4" fill-rule="evenodd"/>
        <path id="Path_4" data-name="Path 4" d="M8.121,9.49,7.076,18.612H4.35Z" transform="translate(1.001 -0.011)" fill="#f8d6f4" fill-rule="evenodd"/>
        <path id="Path_5" data-name="Path 5" d="M15.765,9.49l-.025.076-3.695,9.046H5.42L6.465,9.49Z" transform="translate(2.658 -0.011)" fill="#d59bff" fill-rule="evenodd"/>
        <path id="Path_6" data-name="Path 6" d="M29.645,5.77l-13,31.75L20.294,5.77Z" transform="translate(20.043 -5.77)" fill="#d59bff" fill-rule="evenodd"/>
        <path id="Path_7" data-name="Path 7" d="M25.975,5.77,22.332,37.52H12.98Z" transform="translate(14.361 -5.77)" fill="#f8d6f4" fill-rule="evenodd"/>
        <path id="Path_8" data-name="Path 8" d="M11.343,14.65,7.6,23.747H4.82l1.045-9.1Z" transform="translate(1.729 7.977)" fill="#d59bff" fill-rule="evenodd"/>
      </g>
    </g>
  </g>
</svg>
