<svg xmlns="http://www.w3.org/2000/svg" width="33.498" height="33.498" viewBox="0 0 33.498 33.498">
  <g id="_11053969_x_logo_twitter_new_brand_icon" data-name="11053969_x_logo_twitter_new_brand_icon" transform="translate(0 0)">
    <path id="Path_13414" data-name="Path 13414" d="M15.412,13.7,9.222,5.041H5.92L13.588,15.77l.965,1.35,6.563,9.191h3.3L16.373,15.052Z" transform="translate(1.572 1.112)" fill="#0b0b0b"/>
    <path id="Path_13415" data-name="Path 13415" d="M31.7,1H3.8A2.8,2.8,0,0,0,1,3.8V31.7a2.8,2.8,0,0,0,2.8,2.8H31.7a2.8,2.8,0,0,0,2.8-2.8V3.8A2.8,2.8,0,0,0,31.7,1ZM22.675,29.93l-6.643-9.46L7.717,29.93H5.568L15.08,19.112,5.568,5.568h7.255l6.289,8.956,7.879-8.956H29.14L20.07,15.885,29.93,29.93Z" transform="translate(-1 -1)" fill="#0b0b0b"/>
  </g>
</svg>
