<svg xmlns="http://www.w3.org/2000/svg" width="13.098" height="13.098" viewBox="0 0 13.098 13.098">
  <g id="upload-minimalistic-svgrepo-com_1_" data-name="upload-minimalistic-svgrepo-com (1)" transform="translate(-2.25 -2.25)">
    <path id="Path_13493" data-name="Path 13493" d="M10.812,2.414a.5.5,0,0,0-.744,0L7.382,5.352a.5.5,0,1,0,.744.68L9.937,4.051v7.434a.5.5,0,0,0,1.008,0V4.051l1.811,1.981a.5.5,0,1,0,.744-.68Z" transform="translate(-1.642)" fill="#fff"/>
    <path id="Path_13494" data-name="Path 13494" d="M3.258,14.754a.5.5,0,1,0-1.008,0v.037a18.416,18.416,0,0,0,.078,2.241,2.5,2.5,0,0,0,.659,1.518,2.5,2.5,0,0,0,1.518.66,18.427,18.427,0,0,0,2.241.078h4.1a18.427,18.427,0,0,0,2.241-.078,2.5,2.5,0,0,0,1.518-.66,2.5,2.5,0,0,0,.659-1.518,18.427,18.427,0,0,0,.078-2.241v-.037a.5.5,0,0,0-1.008,0,18.054,18.054,0,0,1-.069,2.144,1.514,1.514,0,0,1-.373.94,1.514,1.514,0,0,1-.94.373,18.054,18.054,0,0,1-2.144.069H6.784a18.053,18.053,0,0,1-2.144-.069,1.514,1.514,0,0,1-.94-.373,1.514,1.514,0,0,1-.373-.94A18.043,18.043,0,0,1,3.258,14.754Z" transform="translate(0 -3.94)" fill="#fff"/>
  </g>
</svg>
